HIERARCHY
ROOT hip
{
  OFFSET 0 0 0
  CHANNELS 6 Xposition Yposition Zposition Zrotation Yrotation Xrotation
  JOINT abdomen
  {
    OFFSET 0 20.6881 -0.73152
    CHANNELS 3 Zrotation Xrotation Yrotation
    JOINT chest
    {
      OFFSET 0 11.7043 -0.48768
      CHANNELS 3 Zrotation Xrotation Yrotation
      JOINT neck
      {
        OFFSET 0 22.1894 -2.19456
        CHANNELS 3 Zrotation Xrotation Yrotation
        JOINT head
        {
          OFFSET -0.24384 7.07133 1.2192
          CHANNELS 3 Zrotation Xrotation Yrotation
          JOINT leftEye
          {
            OFFSET 4.14528 8.04674 8.04672
            CHANNELS 3 Zrotation Xrotation Yrotation
            End Site
            {
              OFFSET 1 0 0
            }
          }
          JOINT rightEye
          {
            OFFSET -3.6576 8.04674 8.04672
            CHANNELS 3 Zrotation Xrotation Yrotation
            End Site
            {
              OFFSET 1 0 0
            }
          }
        }
      }
      JOINT rCollar
      {
        OFFSET -2.68224 19.2634 -4.8768
        CHANNELS 3 Zrotation Xrotation Yrotation
        JOINT rShldr
        {
          OFFSET -8.77824 -1.95073 1.46304
          CHANNELS 3 Zrotation Xrotation Yrotation
          JOINT rForeArm
          {
            OFFSET -28.1742 -1.7115 0.48768
            CHANNELS 3 Zrotation Xrotation Yrotation
            JOINT rHand
            {
              OFFSET -22.5879 0.773209 7.07136
              CHANNELS 3 Zrotation Xrotation Yrotation
              JOINT rThumb1
              {
                OFFSET -1.2192 -0.487915 3.41376
                CHANNELS 3 Zrotation Xrotation Yrotation
                JOINT rThumb2
                {
                  OFFSET -3.37035 -0.52449 3.41376
                  CHANNELS 3 Zrotation Xrotation Yrotation
                  End Site
                  {
                    OFFSET -1.78271 -1.18214 1.43049
                  }
                }
              }
              JOINT rIndex1
              {
                OFFSET -7.75947 0.938293 5.60832
                CHANNELS 3 Zrotation Xrotation Yrotation
                JOINT rIndex2
                {
                  OFFSET -2.54057 -0.884171 1.56538
                  CHANNELS 3 Zrotation Xrotation Yrotation
                  End Site
                  {
                    OFFSET -1.62519 -0.234802 1.16502
                  }
                }
              }
              JOINT rMid1
              {
                OFFSET -8.24714 1.18213 3.41376
                CHANNELS 3 Zrotation Xrotation Yrotation
                JOINT rMid2
                {
                  OFFSET -3.10165 -0.590103 1.0647
                  CHANNELS 3 Zrotation Xrotation Yrotation
                  End Site
                  {
                    OFFSET -2.48547 -0.328903 0.83742
                  }
                }
              }
              JOINT rRing1
              {
                OFFSET -8.82822 0.546677 1.51678
                CHANNELS 3 Zrotation Xrotation Yrotation
                JOINT rRing2
                {
                  OFFSET -2.60934 -0.819778 -0.0198488
                  CHANNELS 3 Zrotation Xrotation Yrotation
                  End Site
                  {
                    OFFSET -2.33842 -0.294052 0.168128
                  }
                }
              }
              JOINT rPinky1
              {
                OFFSET -8.27202 -0.0477905 -0.4584
                CHANNELS 3 Zrotation Xrotation Yrotation
                JOINT rPinky2
                {
                  OFFSET -1.82734 -0.647385 -0.700984
                  CHANNELS 3 Zrotation Xrotation Yrotation
                  End Site
                  {
                    OFFSET -1.69225 -0.51767 -0.607171
                  }
                }
              }
            }
          }
        }
      }
      JOINT lCollar
      {
        OFFSET 2.68224 19.2634 -4.8768
        CHANNELS 3 Zrotation Xrotation Yrotation
        JOINT lShldr
        {
          OFFSET 8.77824 -1.95073 1.46304
          CHANNELS 3 Zrotation Xrotation Yrotation
          JOINT lForeArm
          {
            OFFSET 28.1742 -1.7115 0.48768
            CHANNELS 3 Zrotation Xrotation Yrotation
            JOINT lHand
            {
              OFFSET 22.5879 0.773209 7.07136
              CHANNELS 3 Zrotation Xrotation Yrotation
              JOINT lThumb1
              {
                OFFSET 1.2192 -0.487915 3.41376
                CHANNELS 3 Zrotation Xrotation Yrotation
                JOINT lThumb2
                {
                  OFFSET 3.37035 -0.52449 3.41376
                  CHANNELS 3 Zrotation Xrotation Yrotation
                  End Site
                  {
                    OFFSET 1.78271 -1.18214 1.43049
                  }
                }
              }
              JOINT lIndex1
              {
                OFFSET 7.75947 0.938293 5.60832
                CHANNELS 3 Zrotation Xrotation Yrotation
                JOINT lIndex2
                {
                  OFFSET 2.54057 -0.884171 1.56538
                  CHANNELS 3 Zrotation Xrotation Yrotation
                  End Site
                  {
                    OFFSET 1.62519 -0.234802 1.16502
                  }
                }
              }
              JOINT lMid1
              {
                OFFSET 8.24714 1.18213 3.41376
                CHANNELS 3 Zrotation Xrotation Yrotation
                JOINT lMid2
                {
                  OFFSET 3.10165 -0.590103 1.0647
                  CHANNELS 3 Zrotation Xrotation Yrotation
                  End Site
                  {
                    OFFSET 2.48547 -0.328903 0.83742
                  }
                }
              }
              JOINT lRing1
              {
                OFFSET 8.82822 0.546677 1.51678
                CHANNELS 3 Zrotation Xrotation Yrotation
                JOINT lRing2
                {
                  OFFSET 2.60934 -0.819778 -0.0198488
                  CHANNELS 3 Zrotation Xrotation Yrotation
                  End Site
                  {
                    OFFSET 2.33842 -0.294052 0.168128
                  }
                }
              }
              JOINT lPinky1
              {
                OFFSET 8.27202 -0.0477905 -0.4584
                CHANNELS 3 Zrotation Xrotation Yrotation
                JOINT lPinky2
                {
                  OFFSET 1.82734 -0.647385 -0.700984
                  CHANNELS 3 Zrotation Xrotation Yrotation
                  End Site
                  {
                    OFFSET 1.69225 -0.51767 -0.607171
                  }
                }
              }
            }
          }
        }
      }
    }
  }
  JOINT rButtock
  {
    OFFSET -8.77824 4.35084 1.2192
    CHANNELS 3 Zrotation Xrotation Yrotation
    JOINT rThigh
    {
      OFFSET 0 -1.70687 -2.19456
      CHANNELS 3 Zrotation Xrotation Yrotation
      JOINT rShin
      {
        OFFSET 0 -36.8199 0.73152
        CHANNELS 3 Zrotation Xrotation Yrotation
        JOINT rFoot
        {
          OFFSET 0.73152 -45.1104 -5.12064
          CHANNELS 3 Zrotation Xrotation Yrotation
          End Site
          {
            OFFSET -1.1221 -3.69964 12.103
          }
        }
      }
    }
  }
  JOINT lButtock
  {
    OFFSET 8.77824 4.35084 1.2192
    CHANNELS 3 Zrotation Xrotation Yrotation
    JOINT lThigh
    {
      OFFSET 0 -1.70687 -2.19456
      CHANNELS 3 Zrotation Xrotation Yrotation
      JOINT lShin
      {
        OFFSET 0 -36.8199 0.73152
        CHANNELS 3 Zrotation Xrotation Yrotation
        JOINT lFoot
        {
          OFFSET -0.73152 -45.1104 -5.12064
          CHANNELS 3 Zrotation Xrotation Yrotation
          End Site
          {
            OFFSET 1.1221 -3.69964 12.103
          }
        }
      }
    }
  }
}
MOTION
Frames:	4
Frame Time:	0.03333
-6.832328046206385 55.34230041503906 -41.00200009578839 -4.655100144445896 -6.928499937057495 4.781099930405617 -0.009408899786649272 20.440900325775146 5.865539833903313 0.6648329878225923 -8.30025002360344 1.5653899870812893 -5.092529878020287 13.214700669050217 -2.142660040408373 6.278569847345352 -33.94889920949936 -2.1687099896371365 0.0 0.0 0.0 0.0 0.0 0.0 -3.197442310920451e-13 0.0 0.0 50.761202573776245 31.162700951099396 18.70979994535446 -26.213301122188568 -24.00599867105484 57.71099925041199 -4.492909982800484 -49.9564003944397 -9.626890048384666 -1.7649881556280889e-09 8.748202162678353e-09 -1.6780177247710526e-09 -2.9736213491560193e-09 1.466219146095682e-08 -2.9518787414417602e-09 -1.7649881556280889e-09 8.748202162678353e-09 -1.6780177247710526e-09 7.7309102565050125 5.474880114197731 0.41731400415301323 -1.7649881556280889e-09 8.748202162678353e-09 -1.6780177247710526e-09 2.905540131032467 0.9651830233633518 0.102901995414868 -1.7649881556280889e-09 8.748202162678353e-09 -1.6780177247710526e-09 10.27859978377819 0.7318009994924068 0.025912300043273717 -1.7649881556280889e-09 8.748202162678353e-09 -1.6780177247710526e-09 2.221670038998127 -0.733487019315362 -0.2089200052432716 -3.197442310920451e-13 0.0 0.0 -50.968998670578 43.68849903345108 -35.20240008831024 25.529399514198303 -22.279099971055984 -54.92739737033844 0.025132099399343133 -4.5562999695539474 0.6416630186140537 -1.3461232128975098e-10 5.550759851757903e-10 -1.7394086171407253e-10 -2.334132886971929e-10 9.694645086710807e-10 -3.0183855415089056e-10 -1.3461232128975098e-10 5.550759851757903e-10 -1.7394086171407253e-10 -7.7309102565050125 5.474880114197731 -0.41731400415301323 -1.3461232128975098e-10 5.550759851757903e-10 -1.7394086171407253e-10 -2.905540131032467 0.9651830233633518 -0.102901995414868 -1.3461232128975098e-10 5.550759851757903e-10 -1.7394086171407253e-10 -10.27859978377819 0.7318009994924068 -0.025912300043273717 -1.3461232128975098e-10 5.550759851757903e-10 -1.7394086171407253e-10 -2.221670038998127 -0.733487019315362 0.2089200052432716 0.0 0.0 0.0 0.3710420010611415 -28.265000581741333 -0.3691810090094805 -1.8923100270330906 71.88660264015198 3.660219870507717 -13.996300399303436 -20.496199429035187 -34.61930125951767 0.0 0.0 0.0 21.420599967241287 -67.84679889678955 23.690600395202637 1.007989989593625 55.07740259170532 -0.1712010009214282 1.0574400331825018 3.221999891102314 17.275799810886383
-7.2775180586613715 55.23040008544922 -43.86600017780438 -4.701800085604191 -3.2329000532627106 4.804600104689598 1.2437600176781416 21.28100037574768 4.3779099360108376 1.042589982971549 -8.714350238442421 1.2784900143742561 -5.450090132653713 13.346900045871735 -2.713340073823929 5.9675100445747375 -34.86490041017532 -3.3733398467302322 0.0 0.0 0.0 0.0 0.0 0.0 0.0 0.0 0.0 46.58559858798981 30.802799463272095 24.816299378871918 -26.77059978246689 -25.600199103355408 60.24230182170868 -4.5135800912976265 -50.034597516059875 -9.653879776597023 -2.198561332988902e-09 1.4153158645058284e-08 -2.701199264265597e-09 -3.6783376344828866e-09 2.375060148551711e-08 -4.732214620162267e-09 -2.198561332988902e-09 1.4153158645058284e-08 -2.701199264265597e-09 7.7309102565050125 5.474880114197731 0.41731400415301323 -2.198561332988902e-09 1.4153158645058284e-08 -2.701199264265597e-09 2.905540131032467 0.9651830233633518 0.102901995414868 -2.198561332988902e-09 1.4153158645058284e-08 -2.701199264265597e-09 10.27859978377819 0.7318009994924068 0.025912300043273717 -2.198561332988902e-09 1.4153158645058284e-08 -2.701199264265597e-09 2.221670038998127 -0.733487019315362 -0.2089200052432716 0.0 0.0 0.0 -45.468801856040955 46.28189742565155 -43.44509929418564 25.240399539470673 -21.621599346399307 -53.81420016288757 0.012346700532361865 -3.170809932053089 0.44608798809349537 -8.952838470577262e-10 6.9039174377394374e-09 1.3096723705530167e-09 -1.5552359400317073e-09 1.1930296750506386e-08 2.2663471099804156e-09 -8.952838470577262e-10 6.9039174377394374e-09 1.3096723705530167e-09 -7.7309102565050125 5.474880114197731 -0.41731400415301323 -8.952838470577262e-10 6.9039174377394374e-09 1.3096723705530167e-09 -2.905540131032467 0.9651830233633518 -0.102901995414868 -8.952838470577262e-10 6.9039174377394374e-09 1.3096723705530167e-09 -10.27859978377819 0.7318009994924068 -0.025912300043273717 -8.952838470577262e-10 6.9039174377394374e-09 1.3096723705530167e-09 -2.221670038998127 -0.733487019315362 0.2089200052432716 0.0 0.0 0.0 -0.01996659964788705 -30.850998759269714 -3.7681201100349426 -2.029429916292429 72.70130217075348 3.7872399017214775 -14.6144999563694 -20.881699919700623 -34.72910016775131 0.0 0.0 0.0 17.702500373125076 -70.64240097999573 22.078199833631516 1.7694100365042686 65.3294974565506 -1.1216699704527855 1.6487699747085571 1.049019992351532 14.211700558662415
-7.627738053444773 55.05870056152344 -46.791000130120665 -4.662599936127663 0.1791000016964972 5.006100051105022 2.4436600506305695 21.703799664974213 2.8425900265574455 1.375369979068637 -9.098999798297882 0.9747140016406775 -5.5960700288414955 13.412399590015411 -3.1412801519036293 5.54907001554966 -35.32640129327774 -4.355979859828949 0.0 0.0 0.0 0.0 0.0 0.0 0.0 0.0 0.0 41.2583988904953 31.089500784873962 32.171200811862946 -27.379099130630493 -27.702900767326355 63.5099995136261 -4.5205699279904366 -50.058297514915466 -9.662609696388245 -1.8046364402835025e-09 1.542190375403152e-08 -2.5937652026186697e-09 -3.0043167953408556e-09 2.6323903057345888e-08 -4.537810127658304e-09 -1.8046364402835025e-09 1.542190375403152e-08 -2.5937652026186697e-09 7.7309102565050125 5.474880114197731 0.41731400415301323 -1.8046364402835025e-09 1.542190375403152e-08 -2.5937652026186697e-09 2.905540131032467 0.9651830233633518 0.102901995414868 -1.8046364402835025e-09 1.542190375403152e-08 -2.5937652026186697e-09 10.27859978377819 0.7318009994924068 0.025912300043273717 -1.8046364402835025e-09 1.542190375403152e-08 -2.5937652026186697e-09 2.221670038998127 -0.733487019315362 -0.2089200052432716 0.0 0.0 0.0 -38.21820080280304 47.98049747943878 -53.35810124874115 24.73610132932663 -20.53760066628456 -52.02400267124176 0.008342290166183375 -2.0247199572622776 0.2845949912443757 -1.956834694283316e-10 4.5071146814734675e-09 9.259792932425626e-10 -3.446842811172246e-10 7.791527423250955e-09 1.6012791093089618e-09 -1.956834694283316e-10 4.5071146814734675e-09 9.259792932425626e-10 -7.7309102565050125 5.474880114197731 -0.41731400415301323 -1.956834694283316e-10 4.5071146814734675e-09 9.259792932425626e-10 -2.905540131032467 0.9651830233633518 -0.102901995414868 -1.956834694283316e-10 4.5071146814734675e-09 9.259792932425626e-10 -10.27859978377819 0.7318009994924068 -0.025912300043273717 -1.956834694283316e-10 4.5071146814734675e-09 9.259792932425626e-10 -2.221670038998127 -0.733487019315362 0.2089200052432716 0.0 0.0 0.0 -1.0622400138527155 -33.919199109077454 -7.363249808549881 -2.2419299371540546 73.8441002368927 3.9939798787236214 -14.843399673700333 -20.99470004439354 -34.377001225948334 0.0 0.0 0.0 12.338099777698517 -72.58660018444061 18.002199679613113 3.434240072965622 74.9815982580185 -2.9471901431679726 2.106760013848543 -1.641139928251505 11.065999791026115
-7.89206805313006 54.88180160522461 -49.74100017780438 -4.3059999123215675 3.047199994325638 5.455900132656097 3.324729837477207 21.817600429058075 1.4250299893319607 1.6763799637556076 -9.4286198168993 0.6820290070027113 -5.649630054831505 13.431999832391739 -3.457070030272007 5.230910070240498 -35.48759937286377 -5.093049891293049 0.0 0.0 0.0 0.0 0.0 0.0 0.0 0.0 0.0 34.89969938993454 31.432700157165527 40.63399940729141 -27.891999185085297 -30.003600418567657 67.25440084934235 -4.445770159363747 -49.776697754859924 -9.565230086445808 -1.0334133548894897e-09 1.362877810606733e-08 -1.928697201947216e-09 -1.7042367517206003e-09 2.3655957193113863e-08 -3.356035449542105e-09 -1.0334133548894897e-09 1.362877810606733e-08 -1.928697201947216e-09 7.7309102565050125 5.474880114197731 0.41731400415301323 -1.0334133548894897e-09 1.362877810606733e-08 -1.928697201947216e-09 2.905540131032467 0.9651830233633518 0.102901995414868 -1.0334133548894897e-09 1.362877810606733e-08 -1.928697201947216e-09 10.27859978377819 0.7318009994924068 0.025912300043273717 -1.0334133548894897e-09 1.362877810606733e-08 -1.928697201947216e-09 2.221670038998127 -0.733487019315362 -0.2089200052432716 0.0 0.0 0.0 -29.738600850105286 48.46140146255493 -64.32650148868561 24.016000628471375 -19.127199947834015 -49.66019868850708 0.00020654599438785226 -0.41036699898540974 0.05767429887782782 4.086331273356336e-10 7.059952622512355e-10 1.5347723092418164e-10 7.027978199403151e-10 1.2278178473934531e-09 2.7114310796605423e-10 4.086331273356336e-10 7.059952622512355e-10 1.5347723092418164e-10 -7.7309102565050125 5.474880114197731 -0.41731400415301323 4.086331273356336e-10 7.059952622512355e-10 1.5347723092418164e-10 -2.905540131032467 0.9651830233633518 -0.102901995414868 4.086331273356336e-10 7.059952622512355e-10 1.5347723092418164e-10 -10.27859978377819 0.7318009994924068 -0.025912300043273717 4.086331273356336e-10 7.059952622512355e-10 1.5347723092418164e-10 -2.221670038998127 -0.733487019315362 0.2089200052432716 0.0 0.0 0.0 -2.8425799682736397 -37.25059926509857 -11.186699867248535 -2.514059990644455 75.08149981498718 4.253199957311153 -14.744300097227097 -20.859799683094025 -33.62510025501251 0.0 0.0 0.0 6.159169971942902 -73.16199839115143 12.632599622011185 9.763940200209618 83.86329889297485 -9.422900006175041 2.352590002119541 -4.241119958460331 8.959160149097443
